<svg width="46" height="40" viewBox="0 0 46 40" fill="none" xmlns="http://www.w3.org/2000/svg">
<path d="M45.6223 27.0406C45.6223 33.9604 40.0127 39.5699 33.093 39.5699L14.2991 39.5699C12.377 39.5699 10.8188 38.0117 10.8188 36.0895L10.8188 12.4232C10.8188 8.57888 13.9352 5.46248 17.7795 5.46248L42.1419 5.46248C44.0641 5.46248 45.6223 7.02069 45.6223 8.94283L45.6223 27.0406Z" fill="#E8F5E9"/>
<path d="M19.1134 13.8229C18.8962 13.8229 18.7196 13.6466 18.7196 13.4292V12.76C18.7196 12.5428 18.8959 12.3663 19.1134 12.3663C19.3305 12.3663 19.5071 12.5425 19.5071 12.76V13.4292C19.5071 13.6466 19.3305 13.8229 19.1134 13.8229Z" fill="#103E13"/>
<path d="M17.458 13.8229C17.2408 13.8229 17.0642 13.6466 17.0642 13.4292V12.76C17.0642 12.5428 17.2405 12.3663 17.458 12.3663C17.6751 12.3663 17.8517 12.5425 17.8517 12.76V13.4292C17.8514 13.6466 17.6754 13.8229 17.458 13.8229Z" fill="#103E13"/>
<path d="M15.8027 13.8229C15.5855 13.8229 15.4089 13.6466 15.4089 13.4292V12.76C15.4089 12.5428 15.5852 12.3663 15.8027 12.3663C16.0199 12.3663 16.1964 12.5425 16.1964 12.76V13.4292C16.1964 13.6466 16.0202 13.8229 15.8027 13.8229Z" fill="#103E13"/>
<path d="M19.1134 16.5593C18.8962 16.5593 18.7196 16.383 18.7196 16.1655V15.4967C18.7196 15.2795 18.8959 15.1029 19.1134 15.1029C19.3305 15.1029 19.5071 15.2792 19.5071 15.4967V16.1655C19.5071 16.383 19.3305 16.5593 19.1134 16.5593Z" fill="#103E13"/>
<path d="M17.458 16.5593C17.2408 16.5593 17.0642 16.383 17.0642 16.1655V15.4967C17.0642 15.2795 17.2405 15.1029 17.458 15.1029C17.6751 15.1029 17.8517 15.2792 17.8517 15.4967V16.1655C17.8514 16.383 17.6754 16.5593 17.458 16.5593Z" fill="#103E13"/>
<path d="M15.8027 16.5593C15.5855 16.5593 15.4089 16.383 15.4089 16.1655V15.4967C15.4089 15.2795 15.5852 15.1029 15.8027 15.1029C16.0199 15.1029 16.1964 15.2792 16.1964 15.4967V16.1655C16.1964 16.383 16.0202 16.5593 15.8027 16.5593Z" fill="#103E13"/>
<path d="M19.1134 19.2958C18.8962 19.2958 18.7196 19.1195 18.7196 18.902V18.2329C18.7196 18.0157 18.8959 17.8391 19.1134 17.8391C19.3305 17.8391 19.5071 18.0154 19.5071 18.2329V18.902C19.5071 19.1195 19.3305 19.2958 19.1134 19.2958Z" fill="#103E13"/>
<path d="M17.458 19.2958C17.2408 19.2958 17.0642 19.1195 17.0642 18.902V18.2329C17.0642 18.0157 17.2405 17.8391 17.458 17.8391C17.6751 17.8391 17.8517 18.0154 17.8517 18.2329V18.902C17.8514 19.1195 17.6754 19.2958 17.458 19.2958Z" fill="#103E13"/>
<path d="M15.8027 19.2958C15.5855 19.2958 15.4089 19.1195 15.4089 18.902V18.2329C15.4089 18.0157 15.5852 17.8391 15.8027 17.8391C16.0199 17.8391 16.1964 18.0154 16.1964 18.2329V18.902C16.1964 19.1195 16.0202 19.2958 15.8027 19.2958Z" fill="#103E13"/>
<path d="M19.1134 22.0316C18.8962 22.0316 18.7196 21.8553 18.7196 21.6378V20.9687C18.7196 20.7515 18.8959 20.575 19.1134 20.575C19.3305 20.575 19.5071 20.7512 19.5071 20.9687V21.6378C19.5071 21.8553 19.3305 22.0316 19.1134 22.0316Z" fill="#103E13"/>
<path d="M17.458 22.0316C17.2408 22.0316 17.0642 21.8553 17.0642 21.6378V20.9687C17.0642 20.7515 17.2405 20.575 17.458 20.575C17.6751 20.575 17.8517 20.7512 17.8517 20.9687V21.6378C17.8514 21.8553 17.6754 22.0316 17.458 22.0316Z" fill="#103E13"/>
<path d="M15.8027 22.0316C15.5855 22.0316 15.4089 21.8553 15.4089 21.6378V20.9687C15.4089 20.7515 15.5852 20.575 15.8027 20.575C16.0199 20.575 16.1964 20.7512 16.1964 20.9687V21.6378C16.1964 21.8553 16.0202 22.0316 15.8027 22.0316Z" fill="#103E13"/>
<path d="M19.1134 24.768C18.8962 24.768 18.7196 24.5917 18.7196 24.3742V23.7053C18.7196 23.4881 18.8959 23.3116 19.1134 23.3116C19.3305 23.3116 19.5071 23.4879 19.5071 23.7053V24.3742C19.5071 24.5914 19.3305 24.768 19.1134 24.768Z" fill="#103E13"/>
<path d="M17.458 24.768C17.2408 24.768 17.0642 24.5917 17.0642 24.3742V23.7053C17.0642 23.4881 17.2405 23.3116 17.458 23.3116C17.6751 23.3116 17.8517 23.4879 17.8517 23.7053V24.3742C17.8514 24.5914 17.6754 24.768 17.458 24.768Z" fill="#103E13"/>
<path d="M15.8027 24.768C15.5855 24.768 15.4089 24.5917 15.4089 24.3742L15.4092 23.7053C15.4092 23.4881 15.5855 23.3116 15.803 23.3116C16.0201 23.3116 16.1967 23.4879 16.1967 23.7053V24.3742C16.1964 24.5914 16.0202 24.768 15.8027 24.768Z" fill="#103E13"/>
<path d="M4.55447 27.4911C4.55447 27.7083 4.73075 27.8849 4.94822 27.8849H28.9262C29.1434 27.8849 29.32 27.7086 29.32 27.4911C29.32 27.274 29.1437 27.0974 28.9262 27.0974H28.1984V15.7923C28.1984 15.5751 28.0221 15.3986 27.8046 15.3986L21.3759 15.3988V7.24848C21.3759 7.11065 21.304 6.98325 21.1865 6.91185C21.0692 6.84019 20.9226 6.83579 20.8007 6.89922L13.4917 10.7046C13.3613 10.7724 13.28 10.907 13.28 11.0539V18.1731H6.20652C5.98933 18.1731 5.81277 18.3493 5.81277 18.5668V27.0975H4.94734C4.73015 27.0972 4.55414 27.2735 4.55414 27.4909L4.55447 27.4911ZM21.3761 21.3623H27.4113V27.0977L21.3761 27.0974V21.3623ZM21.3761 18.6261H27.4113V20.5751L21.3761 20.5748V18.6261ZM21.3761 16.1859H27.4113V17.8392H21.3761V16.1859ZM14.0671 11.293L20.5883 7.89751V27.0971H14.0671V11.293ZM8.54671 23.9526C8.54671 23.1354 9.19416 22.4704 9.99015 22.4704C10.7861 22.4704 11.4339 23.1351 11.4339 23.9526V27.0976H8.54671V23.9526ZM6.60025 18.9604H13.2799V27.0974H12.2214V23.9524C12.2214 22.7012 11.2208 21.6831 9.99015 21.6831C8.76004 21.6831 7.75951 22.7009 7.75951 23.9524V27.0974H6.60025V18.9604Z" fill="#103E13"/>
</svg>
