<svg width="46" height="40" viewBox="0 0 46 40" fill="none" xmlns="http://www.w3.org/2000/svg">
<path d="M45.3259 27.0406C45.3259 33.9604 39.7163 39.5699 32.7966 39.5699L14.0027 39.5699C12.0806 39.5699 10.5224 38.0117 10.5224 36.0895L10.5224 12.4232C10.5224 8.57888 13.6388 5.46248 17.4831 5.46248L41.8455 5.46248C43.7677 5.46248 45.3259 7.02069 45.3259 8.94283L45.3259 27.0406Z" fill="#E8F5E9"/>
<path d="M19.7882 17.0484C19.6206 17.0484 19.465 17.0023 19.3267 16.9282V16.9301C19.3267 17.1938 19.2242 17.4415 19.0383 17.627C18.8523 17.8129 18.6048 17.9154 18.3414 17.9154C18.1714 17.9154 18.0138 17.8682 17.8741 17.7921C17.8599 18.0333 17.7635 18.2588 17.5915 18.431C17.4055 18.617 17.1581 18.7195 16.8945 18.7195C16.3709 18.7195 15.9456 18.3079 15.915 17.7919C15.753 17.8795 15.5698 17.9254 15.3808 17.9133C14.8657 17.8795 14.4623 17.4344 14.4623 16.8998V12.4682L13.9577 13.3424C13.7655 13.6768 13.4057 13.8844 13.0183 13.8844C12.8296 13.8844 12.6431 13.8349 12.478 13.7402C12.2723 13.621 12.1252 13.4296 12.0641 13.2007C12.0026 12.9716 12.0344 12.732 12.1533 12.5267C12.1534 12.5267 13.8044 9.66777 13.9051 9.49216C13.917 9.46575 13.9512 9.38917 13.9802 9.3239C14.0079 9.26158 14.0317 9.19763 14.0545 9.13334C14.5523 7.72778 15.7851 6.85468 17.2718 6.85468C19.2025 6.85468 20.7732 8.55789 20.7732 10.6515L20.7734 16.0629C20.7734 16.3263 20.6711 16.5738 20.4853 16.7599C20.2993 16.9459 20.0518 17.0484 19.7882 17.0484L19.7882 17.0484ZM17.2719 7.37822C15.9943 7.37822 14.9761 8.09981 14.5479 9.30843C14.5206 9.38518 14.492 9.46193 14.4587 9.53671C14.3621 9.75335 14.3621 9.75335 14.3349 9.7845L14.3313 9.78138C14.1965 10.0357 13.796 10.7293 12.6066 12.7887C12.5577 12.8731 12.5448 12.9712 12.5697 13.065C12.595 13.1588 12.6555 13.2379 12.7393 13.2862C12.9994 13.4356 13.3556 13.3392 13.5038 13.0809L14.4974 11.3606C14.5568 11.2581 14.6768 11.2078 14.792 11.2389C14.9064 11.2696 14.986 11.3734 14.986 11.4918V16.8999C14.986 17.1551 15.1785 17.3754 15.4152 17.3909C15.5516 17.3981 15.6789 17.3524 15.7745 17.2569C15.8614 17.17 15.9093 17.0543 15.9093 16.9304V13.3934C15.9093 13.2488 16.0265 13.1315 16.1712 13.1315C16.3158 13.1315 16.4331 13.2486 16.4331 13.3934L16.4329 17.7344C16.4329 17.9889 16.64 18.196 16.8945 18.196C17.0182 18.196 17.1343 18.1481 17.2214 18.0612C17.3083 17.9741 17.3562 17.858 17.3562 17.7344V13.3934C17.3562 13.2488 17.4733 13.1315 17.6181 13.1315C17.7627 13.1315 17.88 13.2486 17.88 13.3934L17.8798 16.8898V16.9304C17.8798 17.1848 18.0869 17.3919 18.3416 17.3919C18.4651 17.3919 18.5809 17.3438 18.6684 17.2566C18.7554 17.1698 18.8032 17.0541 18.8032 16.9303V13.3933C18.8032 13.2486 18.9203 13.1314 19.0651 13.1314C19.2098 13.1314 19.327 13.2485 19.327 13.3933L19.3267 16.0631C19.3267 16.3177 19.5338 16.5249 19.7882 16.5249C19.912 16.5249 20.0278 16.4768 20.1147 16.3901C20.2019 16.3028 20.2496 16.1867 20.2496 16.0631L20.2498 10.6516C20.2498 8.84685 18.9139 7.37828 17.2718 7.37828L17.2719 7.37822Z" fill="#103E13"/>
<path d="M9.4985 20.8095L13.2988 18.5296C13.757 18.2545 14.3466 18.3714 14.6405 18.796C14.7477 18.9506 14.8025 19.1308 14.811 19.3144C14.9527 19.2404 15.1069 19.2002 15.2638 19.2002C15.3442 19.2002 15.4248 19.2102 15.5045 19.2301C15.7599 19.2939 15.975 19.4534 16.1103 19.6791C16.2458 19.905 16.2853 20.1699 16.2215 20.4249C16.1627 20.6609 16.0192 20.8595 15.8196 20.9958C15.9591 21.0781 16.0795 21.1905 16.1651 21.3335C16.3006 21.5594 16.3401 21.8241 16.2765 22.0795C16.2127 22.3345 16.0531 22.5496 15.8271 22.6853L15.8258 22.6861C15.9629 22.7683 16.0811 22.8794 16.1658 23.0203C16.3014 23.2463 16.3409 23.5111 16.2771 23.7665C16.2132 24.0216 16.0536 24.2368 15.828 24.3723L11.1877 27.1561C10.3216 27.6754 9.32044 27.8547 8.36896 27.6603C7.40895 27.4642 6.6139 26.9124 6.13047 26.1065C5.36543 24.8315 5.48009 23.325 6.4291 22.1753C6.47256 22.1228 6.51536 22.0693 6.55423 22.0139C6.59539 21.9553 6.64344 21.8865 6.65984 21.8628C6.75807 21.6874 8.36096 18.7995 8.36079 18.7998C8.52265 18.5077 8.82603 18.3424 9.13893 18.3426C9.28488 18.3426 9.43296 18.3785 9.56958 18.4542C9.73456 18.5464 9.87313 18.6807 9.97005 18.8426C10.1693 19.1747 10.1764 19.5902 9.98874 19.9266L9.4985 20.8095ZM9.5213 19.1118C9.47046 19.027 9.4006 18.9595 9.31515 18.9116C9.13854 18.8138 8.91616 18.8775 8.81893 19.0534C7.67198 21.1197 7.281 21.8239 7.13011 22.0745L7.13356 22.0753C7.12093 22.1173 7.12093 22.1173 6.98285 22.3146C6.93595 22.3813 6.88495 22.4455 6.83296 22.5086C6.01691 23.4973 5.92216 24.7415 6.57926 25.8371C6.98629 26.5157 7.659 26.981 8.47354 27.1473C9.29693 27.3147 10.1648 27.1589 10.918 26.707L15.5587 23.923C15.6647 23.8596 15.7394 23.7587 15.7693 23.6392C15.7991 23.5198 15.7806 23.3956 15.717 23.2897C15.5861 23.0716 15.3019 22.9999 15.0838 23.1313L12.7945 24.5047C12.6705 24.5792 12.5095 24.5392 12.4352 24.415C12.3607 24.2911 12.4009 24.1302 12.5249 24.0557L14.8144 22.6823L15.5579 22.2362C15.6638 22.1726 15.7388 22.0717 15.7686 21.9525C15.7985 21.833 15.78 21.7087 15.7163 21.6029C15.5853 21.3846 15.3011 21.3136 15.0832 21.4445L12.0501 23.264C11.9258 23.3386 11.7653 23.2982 11.6908 23.1743C11.6164 23.0503 11.6567 22.8894 11.7805 22.815L15.503 20.5819C15.6089 20.5183 15.6837 20.4176 15.7135 20.298C15.7434 20.1786 15.7249 20.0545 15.6614 19.9486C15.5979 19.8428 15.4971 19.768 15.3775 19.7382C15.2573 19.7083 15.1337 19.7268 15.0281 19.7901L14.339 20.2036C14.3388 20.2036 14.3388 20.2037 14.3386 20.2037H14.3385L11.3056 22.0232C11.1813 22.098 11.0206 22.0577 10.9463 21.9335C10.8718 21.8096 10.9122 21.6487 11.036 21.5742L14.069 19.7547C14.175 19.6911 14.2499 19.5902 14.2798 19.471C14.3126 19.3402 14.2876 19.2063 14.2099 19.0942C14.0751 18.8992 13.7868 18.8474 13.5682 18.9787L8.93086 21.7607C8.82935 21.8214 8.69931 21.8066 8.61419 21.7245C8.52892 21.6421 8.50973 21.5127 8.56713 21.4093L9.53141 19.6719C9.62817 19.4982 9.6244 19.2837 9.52125 19.1119L9.5213 19.1118Z" fill="#103E13"/>
<path d="M27.6583 26.1063C27.175 26.9123 26.3801 27.464 25.4199 27.6602C24.4683 27.8542 23.4674 27.6753 22.6012 27.1559L17.9605 24.372C17.7347 24.2365 17.575 24.0214 17.511 23.7658C17.4476 23.5108 17.4872 23.246 17.6225 23.0203C17.707 22.8793 17.8254 22.7681 17.9626 22.6859L17.9613 22.6851C17.7355 22.5497 17.5758 22.3345 17.5122 22.0793C17.4482 21.8241 17.4879 21.5591 17.6234 21.3332C17.7106 21.188 17.8302 21.0745 17.9666 20.994C17.7685 20.8578 17.6258 20.6598 17.5671 20.425C17.5032 20.1696 17.5428 19.9048 17.6783 19.6791C17.8136 19.4533 18.0289 19.2937 18.2841 19.2299C18.3638 19.2099 18.4446 19.2001 18.5247 19.2001C18.6818 19.2003 18.8359 19.2401 18.9776 19.3142C18.9863 19.1307 19.0409 18.9505 19.1482 18.7958C19.4422 18.3716 20.0313 18.2542 20.4901 18.5295L24.2903 20.809L23.8005 19.9267C23.6126 19.5899 23.6195 19.1743 23.8187 18.8421C23.9158 18.6804 24.0545 18.5461 24.2203 18.4531C24.3566 18.3776 24.5042 18.3419 24.6498 18.3419C24.9625 18.3421 25.2663 18.507 25.4279 18.7991C25.9914 19.8144 27.0547 21.7292 27.1295 21.8629C27.1454 21.886 27.1935 21.9549 27.2346 22.0134C27.2738 22.069 27.3161 22.1221 27.3599 22.1749C28.3088 23.3252 28.4232 24.8314 27.6582 26.1063L27.6583 26.1063ZM26.9559 22.5087C26.9037 22.4455 26.8526 22.3811 26.806 22.3147C26.6643 22.1136 26.6607 22.1084 26.65 22.0557C26.4844 21.7817 26.0804 21.0542 24.9696 19.0532C24.8722 18.8775 24.6508 18.8134 24.4745 18.9108C24.3878 18.9594 24.3181 19.0271 24.2672 19.1119C24.1643 19.2836 24.1603 19.4981 24.2576 19.6723L25.2215 21.4091C25.2791 21.5127 25.2599 21.642 25.1748 21.7243C25.0898 21.8068 24.96 21.8212 24.858 21.7605L20.2206 18.9786C20.002 18.8475 19.7139 18.8989 19.5787 19.094C19.501 19.2062 19.4763 19.34 19.5087 19.4707C19.5386 19.5901 19.6135 19.6908 19.7196 19.7544C19.7199 19.7546 19.7201 19.7549 19.7204 19.7551L22.7525 21.5741C22.8765 21.6485 22.9167 21.8092 22.8422 21.9334C22.7678 22.0572 22.6072 22.0977 22.4829 22.0231L18.7604 19.79C18.6548 19.7267 18.5305 19.708 18.4111 19.738C18.2914 19.7679 18.1907 19.8426 18.1273 19.9487C18.0636 20.0545 18.0453 20.1787 18.0748 20.298C18.1046 20.4174 18.1796 20.5183 18.2855 20.5819L19.0099 21.0163L22.0078 22.815C22.1318 22.8895 22.172 23.0502 22.0975 23.1743C22.0231 23.2981 21.8625 23.3385 21.7382 23.264L18.7055 21.4445C18.4874 21.3133 18.2034 21.3845 18.0722 21.603C18.0085 21.7089 17.9902 21.833 18.0197 21.9524C18.0495 22.0718 18.1245 22.1725 18.2306 22.2363L18.9741 22.6823L21.2633 24.0558C21.3873 24.1302 21.4274 24.291 21.353 24.4151C21.2785 24.5389 21.118 24.5796 20.9937 24.5048L18.7045 23.1314C18.5989 23.0681 18.4751 23.0494 18.3551 23.0794C18.2357 23.1092 18.1346 23.184 18.0712 23.2898C18.0077 23.3957 17.9892 23.52 18.0187 23.6392C18.0485 23.7586 18.1235 23.8593 18.2296 23.9231L22.8703 26.707C23.6234 27.1588 24.4919 27.3153 25.3148 27.1473C26.1292 26.981 26.8019 26.5158 27.2089 25.8372C27.8667 24.7414 27.772 23.497 26.9562 22.5087L26.9559 22.5087Z" fill="#103E13"/>
</svg>
