<svg width="35" height="34" viewBox="0 0 35 34" fill="none" xmlns="http://www.w3.org/2000/svg">
<mask id="path-1-inside-1_211_2338" fill="white">
<path d="M20.315 16.6106C20.1474 16.6106 19.9918 16.5645 19.8536 16.4904V16.4923C19.8536 16.756 19.7511 17.0037 19.5651 17.1891C19.3791 17.3751 19.1317 17.4776 18.8683 17.4776C18.6982 17.4776 18.5406 17.4304 18.4009 17.3543C18.3868 17.5955 18.2904 17.821 18.1183 17.9932C17.9324 18.1792 17.6849 18.2817 17.4214 18.2817C16.8977 18.2817 16.4725 17.8701 16.4418 17.3541C16.2798 17.4417 16.0966 17.4876 15.9077 17.4755C15.3926 17.4417 14.9892 16.9966 14.9892 16.462V12.0304L14.4845 12.9046C14.2923 13.239 13.9326 13.4466 13.5452 13.4466C13.3564 13.4466 13.17 13.3971 13.0048 13.3024C12.7992 13.1832 12.6521 12.9918 12.5909 12.7629C12.5294 12.5338 12.5612 12.2942 12.6801 12.0889C12.6803 12.0889 14.3312 9.22996 14.4319 9.05435C14.4439 9.02795 14.478 8.95137 14.507 8.8861C14.5347 8.82378 14.5585 8.75982 14.5813 8.69554C15.0792 7.28998 16.3119 6.41687 17.7987 6.41687C19.7294 6.41687 21.3001 8.12009 21.3001 10.2136L21.3003 15.6251C21.3003 15.8885 21.1979 16.136 21.0121 16.3221C20.8262 16.5081 20.5787 16.6106 20.315 16.6106L20.315 16.6106ZM17.7987 6.94042C16.5212 6.94042 15.503 7.66201 15.0748 8.87063C15.0474 8.94737 15.0189 9.02412 14.9856 9.0989C14.889 9.31554 14.889 9.31554 14.8618 9.34669L14.8582 9.34358C14.7234 9.59793 14.3229 10.2915 13.1335 12.3509C13.0846 12.4353 13.0716 12.5334 13.0966 12.6272C13.1218 12.721 13.1823 12.8001 13.2661 12.8484C13.5262 12.9978 13.8824 12.9014 14.0307 12.6431L15.0243 10.9228C15.0837 10.8203 15.2037 10.77 15.3188 10.8011C15.4333 10.8318 15.5128 10.9356 15.5128 11.054V16.4621C15.5128 16.7173 15.7054 16.9375 15.942 16.9531C16.0785 16.9603 16.2057 16.9146 16.3013 16.8191C16.3882 16.7322 16.4361 16.6164 16.4361 16.4926V12.9556C16.4361 12.811 16.5534 12.6937 16.698 12.6937C16.8427 12.6937 16.9599 12.8108 16.9599 12.9556L16.9597 17.2966C16.9597 17.5511 17.1669 17.7582 17.4214 17.7582C17.545 17.7582 17.6611 17.7103 17.7482 17.6234C17.8351 17.5363 17.883 17.4202 17.883 17.2966V12.9556C17.883 12.811 18.0001 12.6937 18.1449 12.6937C18.2896 12.6937 18.4068 12.8108 18.4068 12.9556L18.4067 16.4519V16.4926C18.4067 16.747 18.6138 16.9541 18.8685 16.9541C18.9919 16.9541 19.1077 16.906 19.1953 16.8188C19.2822 16.732 19.3301 16.6163 19.3301 16.4924V12.9555C19.3301 12.8108 19.4472 12.6936 19.592 12.6936C19.7366 12.6936 19.8539 12.8107 19.8539 12.9555L19.8536 15.6253C19.8536 15.8799 20.0607 16.0871 20.315 16.0871C20.4388 16.0871 20.5546 16.039 20.6415 15.9523C20.7288 15.865 20.7765 15.7489 20.7765 15.6253L20.7767 10.2138C20.7767 8.40905 19.4408 6.94047 17.7987 6.94047L17.7987 6.94042Z"/>
</mask>
<path d="M20.315 16.6106C20.1474 16.6106 19.9918 16.5645 19.8536 16.4904V16.4923C19.8536 16.756 19.7511 17.0037 19.5651 17.1891C19.3791 17.3751 19.1317 17.4776 18.8683 17.4776C18.6982 17.4776 18.5406 17.4304 18.4009 17.3543C18.3868 17.5955 18.2904 17.821 18.1183 17.9932C17.9324 18.1792 17.6849 18.2817 17.4214 18.2817C16.8977 18.2817 16.4725 17.8701 16.4418 17.3541C16.2798 17.4417 16.0966 17.4876 15.9077 17.4755C15.3926 17.4417 14.9892 16.9966 14.9892 16.462V12.0304L14.4845 12.9046C14.2923 13.239 13.9326 13.4466 13.5452 13.4466C13.3564 13.4466 13.17 13.3971 13.0048 13.3024C12.7992 13.1832 12.6521 12.9918 12.5909 12.7629C12.5294 12.5338 12.5612 12.2942 12.6801 12.0889C12.6803 12.0889 14.3312 9.22996 14.4319 9.05435C14.4439 9.02795 14.478 8.95137 14.507 8.8861C14.5347 8.82378 14.5585 8.75982 14.5813 8.69554C15.0792 7.28998 16.3119 6.41687 17.7987 6.41687C19.7294 6.41687 21.3001 8.12009 21.3001 10.2136L21.3003 15.6251C21.3003 15.8885 21.1979 16.136 21.0121 16.3221C20.8262 16.5081 20.5787 16.6106 20.315 16.6106L20.315 16.6106ZM17.7987 6.94042C16.5212 6.94042 15.503 7.66201 15.0748 8.87063C15.0474 8.94737 15.0189 9.02412 14.9856 9.0989C14.889 9.31554 14.889 9.31554 14.8618 9.34669L14.8582 9.34358C14.7234 9.59793 14.3229 10.2915 13.1335 12.3509C13.0846 12.4353 13.0716 12.5334 13.0966 12.6272C13.1218 12.721 13.1823 12.8001 13.2661 12.8484C13.5262 12.9978 13.8824 12.9014 14.0307 12.6431L15.0243 10.9228C15.0837 10.8203 15.2037 10.77 15.3188 10.8011C15.4333 10.8318 15.5128 10.9356 15.5128 11.054V16.4621C15.5128 16.7173 15.7054 16.9375 15.942 16.9531C16.0785 16.9603 16.2057 16.9146 16.3013 16.8191C16.3882 16.7322 16.4361 16.6164 16.4361 16.4926V12.9556C16.4361 12.811 16.5534 12.6937 16.698 12.6937C16.8427 12.6937 16.9599 12.8108 16.9599 12.9556L16.9597 17.2966C16.9597 17.5511 17.1669 17.7582 17.4214 17.7582C17.545 17.7582 17.6611 17.7103 17.7482 17.6234C17.8351 17.5363 17.883 17.4202 17.883 17.2966V12.9556C17.883 12.811 18.0001 12.6937 18.1449 12.6937C18.2896 12.6937 18.4068 12.8108 18.4068 12.9556L18.4067 16.4519V16.4926C18.4067 16.747 18.6138 16.9541 18.8685 16.9541C18.9919 16.9541 19.1077 16.906 19.1953 16.8188C19.2822 16.732 19.3301 16.6163 19.3301 16.4924V12.9555C19.3301 12.8108 19.4472 12.6936 19.592 12.6936C19.7366 12.6936 19.8539 12.8107 19.8539 12.9555L19.8536 15.6253C19.8536 15.8799 20.0607 16.0871 20.315 16.0871C20.4388 16.0871 20.5546 16.039 20.6415 15.9523C20.7288 15.865 20.7765 15.7489 20.7765 15.6253L20.7767 10.2138C20.7767 8.40905 19.4408 6.94047 17.7987 6.94047L17.7987 6.94042Z" fill="#4CAF4F"/>
<path d="M20.315 16.6106V15.6825H23.594L20.8015 17.401L20.315 16.6106ZM19.8536 16.4904H18.9255V14.9396L20.2921 15.6724L19.8536 16.4904ZM19.5651 17.1891L18.9088 16.5329L18.9097 16.532L19.5651 17.1891ZM18.4009 17.3543L17.4744 17.3001L17.5598 15.8395L18.8448 16.5392L18.4009 17.3543ZM18.1183 17.9932L18.775 18.6491L18.7746 18.6495L18.1183 17.9932ZM16.4418 17.3541L16.0006 16.5377L17.2819 15.8451L17.3683 17.2991L16.4418 17.3541ZM15.9077 17.4755L15.8482 18.4017L15.847 18.4016L15.9077 17.4755ZM14.9892 12.0304L14.1854 11.5664L15.9173 8.56598V12.0304H14.9892ZM14.4845 12.9046L13.6799 12.4421L13.6807 12.4406L14.4845 12.9046ZM13.0048 13.3024L12.5434 14.1077L12.5394 14.1054L13.0048 13.3024ZM12.5909 12.7629L13.4873 12.5223L13.4876 12.5233L12.5909 12.7629ZM12.6801 12.0889L11.877 11.6238L12.1451 11.1608H12.6801V12.0889ZM14.4319 9.05435L15.2772 9.43761L15.259 9.4778L15.237 9.51608L14.4319 9.05435ZM14.507 8.8861L13.659 8.50897L13.659 8.50896L14.507 8.8861ZM14.5813 8.69554L15.4562 9.00541L15.4561 9.00566L14.5813 8.69554ZM21.3001 10.2136L20.372 10.2137V10.2136H21.3001ZM21.3003 15.6251L22.2283 15.6251V15.6251H21.3003ZM21.0121 16.3221L21.669 16.9778L21.6684 16.9784L21.0121 16.3221ZM20.315 16.6106V17.5387H17.036L19.8286 15.8202L20.315 16.6106ZM17.7987 6.94042V6.01232H19.0291L18.6911 7.19538L17.7987 6.94042ZM15.0748 8.87063L15.9496 9.18055L15.9489 9.18254L15.0748 8.87063ZM14.9856 9.0989L15.8335 9.47636L15.8332 9.47685L14.9856 9.0989ZM14.8618 9.34669L15.5607 9.95735L14.9535 10.6522L14.2552 10.0491L14.8618 9.34669ZM14.8582 9.34358L14.0381 8.90898L14.5834 7.88002L15.4648 8.64118L14.8582 9.34358ZM13.1335 12.3509L13.9371 12.8151L13.9367 12.8157L13.1335 12.3509ZM13.0966 12.6272L12.2004 12.8685L12.1996 12.8656L13.0966 12.6272ZM13.2661 12.8484L12.8039 13.6532L12.8021 13.6522L13.2661 12.8484ZM14.0307 12.6431L13.2257 12.1811L13.227 12.1789L14.0307 12.6431ZM15.0243 10.9228L14.2206 10.4586L14.2212 10.4576L15.0243 10.9228ZM15.3188 10.8011L15.0787 11.6976L15.0764 11.697L15.3188 10.8011ZM15.942 16.9531L15.893 17.88L15.8811 17.8792L15.942 16.9531ZM16.3013 16.8191L16.9576 17.4754L16.957 17.476L16.3013 16.8191ZM16.9599 12.9556H17.888V12.9557L16.9599 12.9556ZM16.9597 17.2966H16.0317V17.2966L16.9597 17.2966ZM17.7482 17.6234L18.4051 18.2791L18.4038 18.2803L17.7482 17.6234ZM18.4068 12.9556H19.3349V12.9557L18.4068 12.9556ZM18.4067 16.4519H17.4786V16.4519L18.4067 16.4519ZM19.1953 16.8188L19.8509 17.4757L19.8503 17.4763L19.1953 16.8188ZM19.8539 12.9555H20.782V12.9556L19.8539 12.9555ZM19.8536 15.6253H18.9255V15.6251L19.8536 15.6253ZM20.6415 15.9523L21.2978 16.6085L21.2972 16.6091L20.6415 15.9523ZM20.7765 15.6253H19.8484V15.6252L20.7765 15.6253ZM20.7767 10.2138H21.7048V10.2138L20.7767 10.2138ZM17.7987 6.94047V7.86856H16.5683L16.9063 6.6855L17.7987 6.94047ZM20.315 17.5387C19.9733 17.5387 19.6682 17.4441 19.415 17.3083L20.2921 15.6724C20.3041 15.6789 20.3117 15.6813 20.3148 15.6821C20.3174 15.6828 20.317 15.6825 20.315 15.6825V17.5387ZM20.7817 16.4904V16.4923H18.9255V16.4904H20.7817ZM20.7817 16.4923C20.7817 17.0014 20.5819 17.4858 20.2205 17.8463L18.9097 16.532C18.9163 16.5254 18.9196 16.5197 18.9216 16.5151C18.9235 16.5105 18.9255 16.5033 18.9255 16.4923H20.7817ZM20.2214 17.8454C19.8612 18.2056 19.3776 18.4057 18.8683 18.4057V16.5495C18.8789 16.5495 18.886 16.5476 18.8907 16.5456C18.8955 16.5436 18.9016 16.5401 18.9088 16.5329L20.2214 17.8454ZM18.8683 18.4057C18.5221 18.4057 18.2132 18.3088 17.957 18.1694L18.8448 16.5392C18.8569 16.5458 18.8645 16.5483 18.8676 16.5491C18.8702 16.5498 18.8699 16.5495 18.8683 16.5495V18.4057ZM19.3274 17.4085C19.3007 17.8653 19.1154 18.3083 18.775 18.6491L17.4617 17.3373C17.4652 17.3338 17.4672 17.3308 17.4689 17.327C17.4707 17.3228 17.4736 17.3143 17.4744 17.3001L19.3274 17.4085ZM18.7746 18.6495C18.4144 19.0097 17.9308 19.2098 17.4214 19.2098V17.3536C17.4322 17.3536 17.4392 17.3516 17.444 17.3497C17.4487 17.3477 17.4548 17.3442 17.4621 17.337L18.7746 18.6495ZM17.4214 19.2098C16.3967 19.2098 15.5746 18.4056 15.5154 17.4092L17.3683 17.2991C17.3692 17.3149 17.3757 17.3287 17.3871 17.3396C17.3927 17.3449 17.3983 17.3484 17.4033 17.3504C17.4076 17.3521 17.4131 17.3536 17.4214 17.3536V19.2098ZM16.8831 18.1706C16.5833 18.3326 16.2279 18.4261 15.8482 18.4017L15.9672 16.5493C15.9672 16.5493 15.9692 16.5495 15.9741 16.5483C15.9793 16.5471 15.9884 16.5442 16.0006 16.5377L16.8831 18.1706ZM15.847 18.4016C14.8165 18.334 14.0611 17.4577 14.0611 16.462H15.9173C15.9173 16.4934 15.9287 16.5175 15.9429 16.5333C15.9569 16.5486 15.9663 16.5492 15.9684 16.5494L15.847 18.4016ZM14.0611 16.462V12.0304H15.9173V16.462H14.0611ZM15.793 12.4943L15.2883 13.3686L13.6807 12.4406L14.1854 11.5664L15.793 12.4943ZM15.2892 13.3671C14.9306 13.991 14.263 14.3747 13.5452 14.3747V12.5185C13.6021 12.5185 13.6541 12.4869 13.6799 12.4421L15.2892 13.3671ZM13.5452 14.3747C13.1942 14.3747 12.8487 14.2826 12.5434 14.1077L13.4663 12.4972C13.4912 12.5115 13.5187 12.5185 13.5452 12.5185V14.3747ZM12.5394 14.1054C12.1227 13.8638 11.8194 13.4707 11.6943 13.0024L13.4876 12.5233C13.4867 12.5201 13.4844 12.5145 13.4799 12.5087C13.4755 12.5029 13.4714 12.5001 13.4703 12.4995L12.5394 14.1054ZM11.6946 13.0035C11.569 12.5356 11.6347 12.0422 11.877 11.6238L13.4833 12.5539C13.4846 12.5516 13.4869 12.5463 13.4879 12.5388C13.4889 12.5313 13.4881 12.5253 13.4873 12.5223L11.6946 13.0035ZM12.6801 11.1608C12.2249 11.2801 11.8841 11.6117 11.8816 11.616C11.8807 11.6174 11.8795 11.6195 11.8791 11.6202C11.8788 11.6206 11.8784 11.6213 11.8783 11.6215C11.8782 11.6217 11.878 11.622 11.878 11.622C11.8779 11.6223 11.8779 11.6222 11.8783 11.6216C11.8789 11.6205 11.8799 11.6187 11.8815 11.616C11.8845 11.6107 11.8891 11.6028 11.8952 11.5923C11.9072 11.5714 11.925 11.5407 11.9477 11.5014C11.993 11.423 12.0579 11.3106 12.1361 11.1753C12.2924 10.9045 12.5019 10.5417 12.7146 10.1734C13.1406 9.43554 13.5774 8.67888 13.6268 8.59262L15.237 9.51608C15.1858 9.60543 14.7467 10.366 14.3221 11.1015C14.1094 11.4699 13.8998 11.8328 13.7435 12.1036C13.6653 12.2389 13.6004 12.3513 13.555 12.4299C13.5323 12.4692 13.5145 12.5 13.5023 12.5211C13.4962 12.5316 13.4915 12.5397 13.4883 12.5453C13.4867 12.548 13.4854 12.5503 13.4844 12.552C13.484 12.5528 13.4834 12.5537 13.4829 12.5546C13.4827 12.555 13.4821 12.556 13.4814 12.5572C13.4809 12.558 13.4796 12.5602 13.4788 12.5617C13.4762 12.566 13.1354 12.8976 12.6801 13.017V11.1608ZM13.5867 8.67109C13.5969 8.64856 13.6292 8.57592 13.659 8.50897L15.3551 9.26322C15.3268 9.32682 15.2909 9.40734 15.2772 9.43761L13.5867 8.67109ZM13.659 8.50896C13.6719 8.47995 13.6862 8.44289 13.7066 8.38541L15.4561 9.00566C15.4309 9.07675 15.3976 9.1676 15.355 9.26323L13.659 8.50896ZM13.7065 8.38566C14.3351 6.61104 15.9173 5.48878 17.7987 5.48878V7.34497C16.7066 7.34497 15.8233 7.96891 15.4562 9.00541L13.7065 8.38566ZM17.7987 5.48878C20.3113 5.48878 22.2282 7.67972 22.2282 10.2136H20.372C20.372 8.56046 19.1475 7.34497 17.7987 7.34497V5.48878ZM22.2282 10.2136L22.2283 15.6251L20.3722 15.6252L20.372 10.2137L22.2282 10.2136ZM22.2283 15.6251C22.2283 16.1341 22.0287 16.6174 21.669 16.9778L20.3553 15.6665C20.3626 15.6591 20.3662 15.6529 20.3682 15.648C20.3702 15.6431 20.3722 15.636 20.3722 15.6251H22.2283ZM21.6684 16.9784C21.3081 17.3387 20.8245 17.5387 20.315 17.5387V15.6825C20.3259 15.6825 20.333 15.6805 20.3378 15.6786C20.3425 15.6766 20.3486 15.6731 20.3559 15.6659L21.6684 16.9784ZM19.8286 15.8202L19.8286 15.8202L20.8015 17.401L20.8014 17.401L19.8286 15.8202ZM17.7987 7.86851C16.9163 7.86851 16.2472 8.34055 15.9496 9.18055L14.2 8.56071C14.7587 6.98346 16.1261 6.01232 17.7987 6.01232V7.86851ZM15.9489 9.18254C15.9196 9.26464 15.8815 9.36833 15.8335 9.47636L14.1377 8.72145C14.1562 8.67992 14.1752 8.63011 14.2007 8.55871L15.9489 9.18254ZM15.8332 9.47685C15.7907 9.57217 15.7551 9.65267 15.7279 9.7072C15.711 9.74104 15.6836 9.7932 15.6439 9.85097C15.6037 9.9095 15.5639 9.95365 15.5607 9.95735L14.1629 8.73604C14.1651 8.73355 14.1643 8.73436 14.1632 8.73563C14.1618 8.73728 14.1582 8.74149 14.1535 8.74726C14.1486 8.75323 14.1424 8.76095 14.1354 8.77013C14.1284 8.77939 14.1213 8.78924 14.1141 8.79963C14.0996 8.82079 14.0884 8.83932 14.0804 8.85333C14.073 8.86642 14.0685 8.87547 14.0674 8.87751C14.0664 8.87962 14.0671 8.87838 14.0702 8.87163C14.0733 8.86508 14.0776 8.85566 14.0838 8.84195C14.0899 8.82835 14.0973 8.81193 14.1064 8.79164C14.1155 8.77138 14.1258 8.74817 14.1379 8.72096L15.8332 9.47685ZM14.2552 10.0491L14.2515 10.046L15.4648 8.64118L15.4684 8.64429L14.2552 10.0491ZM15.6782 9.77818C15.533 10.0523 15.1183 10.77 13.9371 12.8151L12.3298 11.8867C13.5275 9.81291 13.9138 9.1436 14.0381 8.90898L15.6782 9.77818ZM13.9367 12.8157C14.011 12.6874 14.0317 12.5325 13.9935 12.3888L12.1996 12.8656C12.1115 12.5343 12.1582 12.1833 12.3302 11.886L13.9367 12.8157ZM13.9927 12.3859C13.9545 12.2441 13.8607 12.12 13.7301 12.0447L12.8021 13.6522C12.504 13.4801 12.2891 13.1979 12.2004 12.8685L13.9927 12.3859ZM13.7284 12.0437C13.6227 11.983 13.52 11.9834 13.4491 12.0025C13.3784 12.0215 13.2878 12.073 13.2257 12.1811L14.8356 13.1051C14.4311 13.8099 13.5067 14.0569 12.8039 13.6532L13.7284 12.0437ZM13.227 12.1789L14.2206 10.4586L15.828 11.387L14.8343 13.1073L13.227 12.1789ZM14.2212 10.4576C14.4893 9.99483 15.0364 9.76322 15.5613 9.90528L15.0764 11.697C15.371 11.7767 15.6781 11.6458 15.8274 11.388L14.2212 10.4576ZM15.559 9.90466C16.0797 10.0441 16.4409 10.516 16.4409 11.054H14.5847C14.5847 11.3552 14.7869 11.6195 15.0787 11.6976L15.559 9.90466ZM16.4409 11.054V16.4621H14.5847V11.054H16.4409ZM16.4409 16.4621C16.4409 16.3564 16.4017 16.2602 16.3374 16.1867C16.2732 16.1132 16.1599 16.0374 16.003 16.027L15.8811 17.8792C15.0998 17.8278 14.5847 17.1472 14.5847 16.4621H16.4409ZM15.991 16.0263C15.8814 16.0205 15.7474 16.0607 15.6456 16.1623L16.957 17.476C16.664 17.7685 16.2755 17.9001 15.893 17.8799L15.991 16.0263ZM15.6451 16.1629C15.557 16.251 15.508 16.3716 15.508 16.4926H17.3642C17.3642 16.8613 17.2195 17.2135 16.9576 17.4754L15.6451 16.1629ZM15.508 16.4926V12.9556H17.3642V16.4926H15.508ZM15.508 12.9556C15.508 12.2984 16.0408 11.7657 16.698 11.7657V13.6218C17.0659 13.6218 17.3642 13.3236 17.3642 12.9556H15.508ZM16.698 11.7657C17.3549 11.7657 17.888 12.2979 17.888 12.9556H16.0318C16.0318 13.3238 16.3305 13.6218 16.698 13.6218V11.7657ZM17.888 12.9557L17.8878 17.2966L16.0317 17.2966L16.0318 12.9556L17.888 12.9557ZM17.8878 17.2966C17.8878 17.0385 17.6794 16.8301 17.4214 16.8301V18.6863C16.6543 18.6863 16.0317 18.0637 16.0317 17.2966H17.8878ZM17.4214 16.8301C17.3006 16.8301 17.1805 16.8788 17.0926 16.9665L18.4038 18.2803C18.1418 18.5419 17.7895 18.6863 17.4214 18.6863V16.8301ZM17.0913 16.9678C17.0036 17.0557 16.9549 17.1758 16.9549 17.2966H18.8111C18.8111 17.6647 18.6667 18.017 18.4051 18.2791L17.0913 16.9678ZM16.9549 17.2966V12.9556H18.8111V17.2966H16.9549ZM16.9549 12.9556C16.9549 12.2988 17.4872 11.7656 18.1449 11.7656V13.6218C18.5131 13.6218 18.8111 13.3232 18.8111 12.9556H16.9549ZM18.1449 11.7656C18.8018 11.7656 19.3349 12.2979 19.3349 12.9556H17.4787C17.4787 13.3238 17.7774 13.6218 18.1449 13.6218V11.7656ZM19.3349 12.9557L19.3347 16.452L17.4786 16.4519L17.4787 12.9556L19.3349 12.9557ZM19.3347 16.4519V16.4926H17.4786V16.4519H19.3347ZM19.3347 16.4926C19.3347 16.2339 19.1259 16.026 18.8685 16.026V17.8822C18.1017 17.8822 17.4786 17.26 17.4786 16.4926H19.3347ZM18.8685 16.026C18.7451 16.026 18.6257 16.0761 18.5403 16.1613L19.8503 17.4763C19.5897 17.7359 19.2387 17.8822 18.8685 17.8822V16.026ZM18.5397 16.1619C18.4509 16.2505 18.402 16.3716 18.402 16.4924H20.2582C20.2582 16.8609 20.1135 17.2136 19.8509 17.4757L18.5397 16.1619ZM18.402 16.4924V12.9555H20.2582V16.4924H18.402ZM18.402 12.9555C18.402 12.2986 18.9342 11.7655 19.592 11.7655V13.6217C19.9601 13.6217 20.2582 13.323 20.2582 12.9555H18.402ZM19.592 11.7655C20.2488 11.7655 20.782 12.2977 20.782 12.9555H18.9258C18.9258 13.3236 19.2244 13.6217 19.592 13.6217V11.7655ZM20.782 12.9556L20.7817 15.6254L18.9255 15.6251L18.9258 12.9553L20.782 12.9556ZM20.7817 15.6253C20.7817 15.3678 20.5737 15.159 20.315 15.159V17.0152C19.5477 17.0152 18.9255 16.3921 18.9255 15.6253H20.7817ZM20.315 15.159C20.1933 15.159 20.0732 15.2083 19.9859 15.2954L21.2972 16.6091C21.0361 16.8698 20.6844 17.0152 20.315 17.0152V15.159ZM19.9853 15.296C19.8969 15.3844 19.8484 15.505 19.8484 15.6253H21.7046C21.7046 15.9928 21.5607 16.3457 21.2978 16.6085L19.9853 15.296ZM19.8484 15.6252L19.8486 10.2137L21.7048 10.2138L21.7046 15.6253L19.8484 15.6252ZM19.8486 10.2138C19.8486 8.83704 18.8475 7.86856 17.7987 7.86856V6.01238C20.034 6.01238 21.7048 7.98106 21.7048 10.2138H19.8486ZM16.9063 6.6855L16.9063 6.68545L18.6911 7.19538L18.6911 7.19544L16.9063 6.6855Z" fill="#4CAF4F" mask="url(#path-1-inside-1_211_2338)"/>
<path d="M11.8325 21.5855C11.7082 21.6603 11.5474 21.6199 11.4731 21.4958C11.3987 21.3718 11.439 21.2109 11.5629 21.1365M11.8325 21.5855L14.0951 18.541C14.3137 18.4096 14.602 18.4614 14.7368 18.6564M11.8325 21.5855L14.8653 19.766H14.8655L14.8658 19.7658M11.8325 21.5855L16.0298 20.1442C16.1358 20.0805 16.2106 19.9798 16.2404 19.8603M11.5629 21.1365L14.5959 19.317C14.7018 19.2534 14.7768 19.1525 14.8066 19.0333M11.5629 21.1365L11.5936 21.1877L11.6976 21.361L11.6978 21.3614L11.7446 21.4395L11.8016 21.5344L11.8017 21.5343L11.8017 21.5343L11.802 21.5342M11.5629 21.1365L11.5936 21.1876M14.8066 19.0333C14.8394 18.9024 14.8145 18.7686 14.7368 18.6564M14.8066 19.0333L14.8815 19.052L14.8743 18.8982C14.8694 18.7922 14.8384 18.6983 14.786 18.6227L14.7859 18.6225L14.7368 18.6564M14.8066 19.0333L14.8815 19.052L14.8889 19.2108L14.737 19.3019H14.7368L14.6266 19.3681L14.6266 19.3681L14.6265 19.3681L11.5937 21.1876M14.7368 18.6564L14.7858 18.6224L12.5465 22.7749C12.6417 22.7176 12.6732 22.5938 12.6155 22.4976C12.5582 22.4023 12.434 22.3709 12.3383 22.4283L15.3711 20.6089C15.4408 20.567 15.5139 20.5355 15.5884 20.5137L16.0588 20.1925L16.0589 20.1925L16.0848 20.1748C16.1951 20.0995 16.2681 19.9951 16.2981 19.8749L16.2982 19.8747L16.2404 19.8603M11.5937 21.1876C11.6892 21.1305 11.8134 21.1614 11.871 21.2569C11.8711 21.2571 11.8712 21.2573 11.8713 21.2575C11.9286 21.3536 11.897 21.477 11.802 21.5342M11.5937 21.1876C11.5937 21.1876 11.5936 21.1876 11.5936 21.1876M11.5937 21.1876L11.5936 21.1876M11.802 21.5342L14.8346 19.7149L14.8347 19.7149L14.8348 19.7148C14.8349 19.7147 14.835 19.7147 14.8351 19.7146L14.8653 19.765L14.8655 19.7653L14.8658 19.7658M11.802 21.5342L11.698 21.3612L11.6978 21.3609L11.6626 21.3024L11.5936 21.1876M14.8658 19.7658V19.6953C14.9243 19.657 14.9779 19.6126 15.0257 19.563L15.5249 19.3024L15.525 19.3024L15.5526 19.288C15.6329 19.2461 15.7138 19.2265 15.7906 19.2265C15.8322 19.2265 15.8751 19.2317 15.9188 19.2425C15.9188 19.2425 15.9188 19.2425 15.9188 19.2425C15.919 19.2426 15.9191 19.2426 15.9193 19.2426L16.017 18.8502M14.8658 19.7658L15.5549 19.3524C15.6605 19.2891 15.7842 19.2706 15.9044 19.3004C16.0239 19.3303 16.1248 19.405 16.1882 19.5108C16.2517 19.6168 16.2702 19.7409 16.2404 19.8603M16.017 18.8502C16.017 18.8502 16.0169 18.8502 16.0169 18.8502M16.017 18.8502C16.2561 18.91 16.4594 19.0609 16.5861 19.272L16.6372 19.2413M16.017 18.8502L16.0314 18.7923M16.0169 18.8502L15.9189 19.2425C16.0547 19.2765 16.1672 19.3598 16.2392 19.48C16.2393 19.48 16.2393 19.4801 16.2393 19.4802C16.2393 19.4802 16.2393 19.4802 16.2394 19.4802C16.3116 19.6009 16.332 19.7394 16.2982 19.8746L16.2982 19.8747L16.2404 19.8603M16.0169 18.8502C16.0169 18.8502 16.0168 18.8502 16.0168 18.8502L16.0162 18.85C15.9445 18.8322 15.8718 18.8231 15.7996 18.8225M16.0169 18.8502L16.0314 18.7923M15.5793 20.9556L15.8409 20.7986L16.1107 20.9577C16.1915 21.0054 16.2525 21.0651 16.2938 21.1341L16.2939 21.1343C16.294 21.1344 16.294 21.1344 16.2941 21.1345L16.2432 21.1651M15.5793 20.9556L16.3531 21.5292C16.3868 21.3935 16.3663 21.2551 16.2941 21.1346L16.2432 21.1651M15.5793 20.9556L15.61 21.0067M15.5793 20.9556L15.5793 20.9556L15.61 21.0067M16.2432 21.1651C16.1122 20.9469 15.828 20.8759 15.61 21.0067M16.2432 21.1651C16.3068 21.2709 16.3253 21.3952 16.2955 21.5148L15.61 21.0067M16.6854 20.8849C16.6876 20.8885 16.6898 20.8921 16.692 20.8957L16.6854 20.8849ZM16.6854 20.8849C16.6697 20.8971 16.6538 20.909 16.6376 20.9206C16.6387 20.9224 16.6398 20.9242 16.6408 20.9259L16.6854 20.8849ZM16.6131 20.1771C16.6466 20.113 16.6727 20.0446 16.6906 19.9728L16.6131 20.1771ZM16.6131 20.1771C16.6298 20.1874 16.6463 20.1982 16.6627 20.2092C16.6999 20.1399 16.7288 20.0656 16.7484 19.9872C16.8122 19.7321 16.7727 19.4673 16.6372 19.2413M16.6131 20.1771L16.6906 19.9727C16.7504 19.7336 16.7127 19.4833 16.5863 19.2723L16.5862 19.2721C16.5861 19.272 16.5861 19.272 16.5861 19.272L16.6372 19.2413M16.6372 19.2413C16.5019 19.0157 16.2867 18.8561 16.0314 18.7923M16.0314 18.7923L15.7943 18.7625M15.7943 18.7625C15.7965 18.7825 15.7982 18.8025 15.7996 18.8225M15.7943 18.7625C15.7931 18.7625 15.7919 18.7625 15.7906 18.7625C15.6337 18.7625 15.4796 18.8027 15.3379 18.8766M15.7943 18.7625L15.3379 18.8766M15.7996 18.8225C15.8003 18.8334 15.8009 18.8442 15.8014 18.8551L15.7906 18.8556L15.5026 18.869M15.7996 18.8225C15.7966 18.8225 15.7936 18.8224 15.7906 18.8224C15.6927 18.8225 15.5956 18.8382 15.5026 18.869M15.5026 18.869L15.3379 18.8766M15.5026 18.869C15.4553 18.8846 15.4091 18.9041 15.3644 18.9274C15.3482 18.9359 15.3322 18.9449 15.3163 18.9544L15.3162 18.9545L15.2832 18.9743M15.3379 18.8766L15.0734 19.1001L15.0735 19.1001L15.2568 19.146C15.2568 19.146 15.2568 19.146 15.2567 19.1461C15.271 19.089 15.2798 19.0315 15.2832 18.9743M15.3379 18.8766L15.267 18.7409M15.3379 18.8766C15.3305 18.7185 15.2888 18.5628 15.2089 18.4239C15.1907 18.4319 15.1726 18.4404 15.1548 18.4492M15.2832 18.9743C15.2851 18.9425 15.2853 18.9107 15.2838 18.8791C15.2818 18.8326 15.2761 18.7864 15.267 18.7409M15.2832 18.9743L15.267 18.7409M15.267 18.7409L15.1231 18.4652C15.1336 18.4598 15.1442 18.4544 15.1548 18.4492M15.267 18.7409L15.1183 18.3922C15.1312 18.4109 15.1434 18.4299 15.1548 18.4492M15.267 18.7409C15.2466 18.6389 15.2089 18.5404 15.1548 18.4492M16.3464 20.558L16.4258 20.4236C16.3914 20.4557 16.3544 20.4854 16.3151 20.5122C16.3 20.5226 16.2846 20.5325 16.2688 20.542L16.2685 20.5421L16.235 20.5622L16.3464 20.558ZM8.93563 18.3984L8.88287 18.3707C8.87317 18.3881 8.84902 18.4316 8.81336 18.4959C8.80452 18.5118 8.79499 18.529 8.78479 18.5473C8.80297 18.5564 8.82131 18.5644 8.83968 18.5713C8.87105 18.5148 8.90303 18.4572 8.93563 18.3984ZM13.0826 23.6691C13.0826 23.6691 13.0825 23.6691 13.0825 23.6692L13.0826 23.6691Z" fill="#4CAF4F" stroke="#4CAF4F" stroke-width="0.928093"/>
<path d="M24.7845 19.2345L24.7844 19.2346L24.7845 19.2345ZM24.7845 19.2345C24.6872 19.0603 24.6912 18.8458 24.7942 18.6741L24.7845 19.2345ZM19.0429 18.8223C18.9704 18.8229 18.8975 18.832 18.8255 18.8501L19.0429 18.8223ZM19.0429 18.8223C19.0442 18.8023 19.046 18.7823 19.0481 18.7624L19.0429 18.8223ZM24.3668 19.56L24.3274 19.489L24.3668 19.56ZM23.2487 21.1875C23.2486 21.1874 23.2485 21.1874 23.2484 21.1873L23.2485 21.1874L23.2487 21.1875ZM21.7598 23.6694C21.7597 23.6694 21.7596 23.6693 21.7595 23.6692L21.7598 23.6694ZM21.7593 23.6691L21.7595 23.6692L21.7593 23.6691Z" fill="#4CAF4F" stroke="#4CAF4F" stroke-width="0.928093"/>
</svg>
