<svg width="46" height="40" viewBox="0 0 46 40" fill="none" xmlns="http://www.w3.org/2000/svg">
<rect x="1.17416" y="1.09003" width="44.2445" height="37.9799" stroke="black"/>
<path d="M45.9187 27.0406C45.9187 33.9604 40.3092 39.5699 33.3894 39.5699L14.5956 39.5699C12.6734 39.5699 11.1152 38.0117 11.1152 36.0895L11.1152 12.4232C11.1152 8.57888 14.2316 5.46248 18.0759 5.46248L42.4384 5.46248C44.3605 5.46248 45.9187 7.02069 45.9187 8.94283L45.9187 27.0406Z" fill="#E8F5E9"/>
<path d="M17.3729 7.55072C14.8871 7.55072 12.8634 9.59291 12.8634 12.0893C12.8634 13.6686 13.6743 15.063 14.8989 15.8758C13.4199 16.3704 12.1401 17.2947 11.2014 18.5038C10.6824 18.1047 10.1025 17.7836 9.47742 17.5536C10.4254 16.8498 11.0448 15.7193 11.0448 14.4488C11.0448 12.3315 9.33245 10.5982 7.22801 10.5982C5.12358 10.5982 3.41119 12.3315 3.41119 14.4488C3.41119 15.7201 4.03118 16.8511 4.97993 17.5548C2.46811 18.4817 0.674194 20.9085 0.674194 23.7644V25.7706C0.674451 25.9236 0.735627 26.0701 0.844097 26.1778C0.952566 26.2857 1.09934 26.3459 1.25228 26.3454H10.0541C10.0754 26.3477 10.0967 26.349 10.1181 26.3487H24.6282C24.6495 26.349 24.6711 26.3477 24.6922 26.3454H33.4947C33.8111 26.3441 34.0673 26.0873 34.0681 25.7706V23.7644C34.0681 20.9085 32.2773 18.4817 29.7668 17.5546C30.7155 16.8511 31.3355 15.7198 31.3355 14.4485C31.3355 12.3312 29.6231 10.598 27.5187 10.598C25.4143 10.598 23.7019 12.3312 23.7019 14.4485C23.7019 15.7191 24.3216 16.8498 25.2696 17.5533C24.6432 17.7839 24.063 18.106 23.5433 18.5061C22.6051 17.2962 21.3271 16.3707 19.8481 15.8758C21.0723 15.063 21.8836 13.6686 21.8836 12.0893C21.8836 9.59291 19.8589 7.55072 17.373 7.55072H17.3729ZM17.3729 8.70227C19.2321 8.70227 20.7309 10.2111 20.7309 12.0893C20.7309 13.9529 19.2554 15.447 17.4168 15.471C17.4022 15.471 17.3878 15.4689 17.3729 15.4689C17.358 15.4689 17.3438 15.471 17.3289 15.471C15.4903 15.4474 14.0159 13.9529 14.0159 12.0893C14.0159 10.2109 15.5134 8.70227 17.3726 8.70227H17.3729ZM7.22808 11.7497C8.70325 11.7497 9.89335 12.947 9.89335 14.4487C9.89335 15.9403 8.71864 17.1325 7.25736 17.1486C7.24759 17.1486 7.23808 17.1476 7.22806 17.1476C7.21829 17.1476 7.20878 17.1486 7.19876 17.1486C5.73748 17.1324 4.56277 15.94 4.56277 14.4487C4.56277 12.9471 5.75287 11.7497 7.22804 11.7497H7.22808ZM27.5184 11.7497C28.9935 11.7497 30.1836 12.947 30.1836 14.4487C30.1836 15.9403 29.0089 17.1325 27.5476 17.1486C27.5379 17.1486 27.5284 17.1476 27.5183 17.1476C27.5086 17.1476 27.4991 17.1486 27.489 17.1486C26.0277 17.1324 24.853 15.94 24.853 14.4487C24.853 12.9471 26.0431 11.7497 27.5183 11.7497H27.5184ZM17.3288 16.6225C17.3435 16.6227 17.3578 16.6245 17.3728 16.6245C17.3874 16.6245 17.4018 16.6225 17.4167 16.6225C21.104 16.6461 24.0549 19.6224 24.0549 23.3482L24.0546 25.1968H10.6914V23.3482C10.6914 19.6221 13.6415 16.6462 17.3283 16.6225H17.3288ZM7.18399 18.3015C7.19864 18.3018 7.21304 18.3036 7.22795 18.3036C7.24286 18.3036 7.25699 18.3015 7.2719 18.3015C8.51906 18.3115 9.65725 18.7416 10.5636 19.461C9.91503 20.6085 9.53999 21.933 9.53999 23.3485V25.1928H1.82528V23.7644C1.82528 20.7364 4.20602 18.3251 7.18386 18.3012L7.18399 18.3015ZM27.4743 18.3015C27.4892 18.3018 27.5033 18.3036 27.5182 18.3036C27.5331 18.3036 27.5473 18.3015 27.5622 18.3015C30.54 18.3252 32.9208 20.7367 32.9208 23.7646V25.1928H25.2021L25.2018 23.3485C25.2018 21.9337 24.8278 20.6103 24.1806 19.4631C25.0871 18.7426 26.2261 18.3115 27.4743 18.3015H27.4743Z" fill="#103E13"/>
</svg>
